<mxfile host="app.diagrams.net" modified="2023-12-12T18:45:44.251Z" agent="Mozilla/5.0 (Windows NT 10.0; Win64; x64) AppleWebKit/537.36 (KHTML, like Gecko) Chrome/120.0.0.0 Safari/537.36" version="21.3.8" etag="HrVBrKmjg3jr4Qtxa02l" type="github">
  <diagram name="PÃ¡gina-1" id="ShdM6mmHDiq49XskiOSl">
    <mxGraphModel>
      <root>
        <mxCell id="0" />
        <mxCell id="1" parent="0" />
      </root>
    </mxGraphModel>
  </diagram>
</mxfile>
